{
	"asset":{
		"generator":"Khronos glTF Blender I/O v4.0.44",
		"version":"2.0"
	},
	"scene":0,
	"scenes":[
		{
			"name":"Scene",
			"nodes":[
				0,
				1,
				2,
				3,
				4,
				5
			]
		}
	],
	"nodes":[
		{
			"mesh":0,
			"name":"Cube",
			"scale":[
				0.13637933135032654,
				1.0489583015441895,
				1.708441972732544
			]
		},
		{
			"mesh":1,
			"name":"Cubo",
			"rotation":[
				1,
				0,
				0,
				0
			],
			"scale":[
				-0.015231330879032612,
				-1,
				-1.6418277025222778
			],
			"translation":[
				0.1598522663116455,
				0,
				0
			]
		},
		{
			"mesh":2,
			"name":"Cubo.001",
			"scale":[
				0.02417697198688984,
				1.1092437505722046,
				0.3145703673362732
			],
			"translation":[
				0.6490336656570435,
				-0.2939119338989258,
				0
			]
		},
		{
			"mesh":3,
			"name":"Cubo.002",
			"rotation":[
				0,
				0,
				-0.30887606739997864,
				0.9511023163795471
			],
			"scale":[
				0.012413060292601585,
				0.39984869956970215,
				0.22526763379573822
			],
			"translation":[
				0.4000476598739624,
				0.2931772470474243,
				0
			]
		},
		{
			"mesh":4,
			"name":"Cilindro",
			"rotation":[
				0,
				0,
				-0.7081251740455627,
				0.7060869336128235
			],
			"scale":[
				0.25079917907714844,
				0.012368690222501755,
				0.25079911947250366
			],
			"translation":[
				0.17327922582626343,
				0,
				0
			]
		},
		{
			"mesh":5,
			"name":"Cubo.003",
			"scale":[
				0.4028204679489136,
				0.03426012769341469,
				0.3203023076057434
			],
			"translation":[
				0.4034961760044098,
				-1.3772025108337402,
				0
			]
		}
	],
	"materials":[
		{
			"doubleSided":true,
			"name":"Material.003",
			"pbrMetallicRoughness":{
				"baseColorFactor":[
					0.04971491917967796,
					0.04970439150929451,
					0.04970298334956169,
					1
				],
				"roughnessFactor":0.5
			}
		}
	],
	"meshes":[
		{
			"name":"Cube",
			"primitives":[
				{
					"attributes":{
						"POSITION":0,
						"NORMAL":1,
						"TEXCOORD_0":2
					},
					"indices":3,
					"material":0
				}
			]
		},
		{
			"name":"Cubo",
			"primitives":[
				{
					"attributes":{
						"POSITION":4,
						"NORMAL":5,
						"TEXCOORD_0":6
					},
					"indices":7,
					"material":0
				}
			]
		},
		{
			"name":"Cubo.001",
			"primitives":[
				{
					"attributes":{
						"POSITION":8,
						"NORMAL":9,
						"TEXCOORD_0":10
					},
					"indices":11,
					"material":0
				}
			]
		},
		{
			"name":"Cubo.002",
			"primitives":[
				{
					"attributes":{
						"POSITION":12,
						"NORMAL":13,
						"TEXCOORD_0":14
					},
					"indices":7,
					"material":0
				}
			]
		},
		{
			"name":"Cilindro",
			"primitives":[
				{
					"attributes":{
						"POSITION":15,
						"NORMAL":16,
						"TEXCOORD_0":17
					},
					"indices":18,
					"material":0
				}
			]
		},
		{
			"name":"Cubo.003",
			"primitives":[
				{
					"attributes":{
						"POSITION":19,
						"NORMAL":20,
						"TEXCOORD_0":21
					},
					"indices":22,
					"material":0
				}
			]
		}
	],
	"accessors":[
		{
			"bufferView":0,
			"componentType":5126,
			"count":1176,
			"max":[
				1,
				1,
				1
			],
			"min":[
				-1,
				-1,
				-1
			],
			"type":"VEC3"
		},
		{
			"bufferView":1,
			"componentType":5126,
			"count":1176,
			"type":"VEC3"
		},
		{
			"bufferView":2,
			"componentType":5126,
			"count":1176,
			"type":"VEC2"
		},
		{
			"bufferView":3,
			"componentType":5123,
			"count":1764,
			"type":"SCALAR"
		},
		{
			"bufferView":4,
			"componentType":5126,
			"count":24,
			"max":[
				1,
				1,
				1
			],
			"min":[
				-1,
				-1,
				-1
			],
			"type":"VEC3"
		},
		{
			"bufferView":5,
			"componentType":5126,
			"count":24,
			"type":"VEC3"
		},
		{
			"bufferView":6,
			"componentType":5126,
			"count":24,
			"type":"VEC2"
		},
		{
			"bufferView":7,
			"componentType":5123,
			"count":36,
			"type":"SCALAR"
		},
		{
			"bufferView":8,
			"componentType":5126,
			"count":3456,
			"max":[
				1,
				1,
				1
			],
			"min":[
				-1,
				-1,
				-1
			],
			"type":"VEC3"
		},
		{
			"bufferView":9,
			"componentType":5126,
			"count":3456,
			"type":"VEC3"
		},
		{
			"bufferView":10,
			"componentType":5126,
			"count":3456,
			"type":"VEC2"
		},
		{
			"bufferView":11,
			"componentType":5123,
			"count":5172,
			"type":"SCALAR"
		},
		{
			"bufferView":12,
			"componentType":5126,
			"count":24,
			"max":[
				1,
				1,
				1
			],
			"min":[
				-1,
				-1,
				-1
			],
			"type":"VEC3"
		},
		{
			"bufferView":13,
			"componentType":5126,
			"count":24,
			"type":"VEC3"
		},
		{
			"bufferView":14,
			"componentType":5126,
			"count":24,
			"type":"VEC2"
		},
		{
			"bufferView":15,
			"componentType":5126,
			"count":192,
			"max":[
				1,
				1,
				1
			],
			"min":[
				-1,
				-1,
				-1
			],
			"type":"VEC3"
		},
		{
			"bufferView":16,
			"componentType":5126,
			"count":192,
			"type":"VEC3"
		},
		{
			"bufferView":17,
			"componentType":5126,
			"count":192,
			"type":"VEC2"
		},
		{
			"bufferView":18,
			"componentType":5123,
			"count":372,
			"type":"SCALAR"
		},
		{
			"bufferView":19,
			"componentType":5126,
			"count":1536,
			"max":[
				1,
				1,
				1
			],
			"min":[
				-1,
				-1,
				-1
			],
			"type":"VEC3"
		},
		{
			"bufferView":20,
			"componentType":5126,
			"count":1536,
			"type":"VEC3"
		},
		{
			"bufferView":21,
			"componentType":5126,
			"count":1536,
			"type":"VEC2"
		},
		{
			"bufferView":22,
			"componentType":5123,
			"count":2292,
			"type":"SCALAR"
		}
	],
	"bufferViews":[
		{
			"buffer":0,
			"byteLength":14112,
			"byteOffset":0,
			"target":34962
		},
		{
			"buffer":0,
			"byteLength":14112,
			"byteOffset":14112,
			"target":34962
		},
		{
			"buffer":0,
			"byteLength":9408,
			"byteOffset":28224,
			"target":34962
		},
		{
			"buffer":0,
			"byteLength":3528,
			"byteOffset":37632,
			"target":34963
		},
		{
			"buffer":0,
			"byteLength":288,
			"byteOffset":41160,
			"target":34962
		},
		{
			"buffer":0,
			"byteLength":288,
			"byteOffset":41448,
			"target":34962
		},
		{
			"buffer":0,
			"byteLength":192,
			"byteOffset":41736,
			"target":34962
		},
		{
			"buffer":0,
			"byteLength":72,
			"byteOffset":41928,
			"target":34963
		},
		{
			"buffer":0,
			"byteLength":41472,
			"byteOffset":42000,
			"target":34962
		},
		{
			"buffer":0,
			"byteLength":41472,
			"byteOffset":83472,
			"target":34962
		},
		{
			"buffer":0,
			"byteLength":27648,
			"byteOffset":124944,
			"target":34962
		},
		{
			"buffer":0,
			"byteLength":10344,
			"byteOffset":152592,
			"target":34963
		},
		{
			"buffer":0,
			"byteLength":288,
			"byteOffset":162936,
			"target":34962
		},
		{
			"buffer":0,
			"byteLength":288,
			"byteOffset":163224,
			"target":34962
		},
		{
			"buffer":0,
			"byteLength":192,
			"byteOffset":163512,
			"target":34962
		},
		{
			"buffer":0,
			"byteLength":2304,
			"byteOffset":163704,
			"target":34962
		},
		{
			"buffer":0,
			"byteLength":2304,
			"byteOffset":166008,
			"target":34962
		},
		{
			"buffer":0,
			"byteLength":1536,
			"byteOffset":168312,
			"target":34962
		},
		{
			"buffer":0,
			"byteLength":744,
			"byteOffset":169848,
			"target":34963
		},
		{
			"buffer":0,
			"byteLength":18432,
			"byteOffset":170592,
			"target":34962
		},
		{
			"buffer":0,
			"byteLength":18432,
			"byteOffset":189024,
			"target":34962
		},
		{
			"buffer":0,
			"byteLength":12288,
			"byteOffset":207456,
			"target":34962
		},
		{
			"buffer":0,
			"byteLength":4584,
			"byteOffset":219744,
			"target":34963
		}
	],
	"buffers":[
		{
			"byteLength":224328,
			"uri":"monitor.bin"
		}
	]
}
